<svg xmlns="http://www.w3.org/2000/svg" viewBox="0 0 1280 640" width="1280" height="640">
  <defs>
    <marker id="arr" viewBox="0 0 10 10" refX="8" refY="5" markerWidth="6" markerHeight="6" orient="auto">
      <path d="M2 1L8 5L2 9" fill="none" stroke="#4F7FBF" stroke-width="1.5" stroke-linecap="round" stroke-linejoin="round"/>
    </marker>
    <marker id="arr2" viewBox="0 0 10 10" refX="8" refY="5" markerWidth="5" markerHeight="5" orient="auto">
      <path d="M2 1L8 5L2 9" fill="none" stroke="#5DCAA5" stroke-width="1.5" stroke-linecap="round" stroke-linejoin="round"/>
    </marker>
  </defs>

  <rect width="1280" height="640" fill="#0d0f1a"/>

  <line x1="0" y1="80" x2="1280" y2="80" stroke="#1a1d2e" stroke-width="1"/>
  <line x1="0" y1="160" x2="1280" y2="160" stroke="#1a1d2e" stroke-width="1"/>
  <line x1="0" y1="240" x2="1280" y2="240" stroke="#1a1d2e" stroke-width="1"/>
  <line x1="0" y1="320" x2="1280" y2="320" stroke="#1a1d2e" stroke-width="1"/>
  <line x1="0" y1="400" x2="1280" y2="400" stroke="#1a1d2e" stroke-width="1"/>
  <line x1="0" y1="480" x2="1280" y2="480" stroke="#1a1d2e" stroke-width="1"/>
  <line x1="0" y1="560" x2="1280" y2="560" stroke="#1a1d2e" stroke-width="1"/>
  <line x1="80" y1="0" x2="80" y2="640" stroke="#1a1d2e" stroke-width="1"/>
  <line x1="160" y1="0" x2="160" y2="640" stroke="#1a1d2e" stroke-width="1"/>
  <line x1="240" y1="0" x2="240" y2="640" stroke="#1a1d2e" stroke-width="1"/>
  <line x1="320" y1="0" x2="320" y2="640" stroke="#1a1d2e" stroke-width="1"/>
  <line x1="400" y1="0" x2="400" y2="640" stroke="#1a1d2e" stroke-width="1"/>
  <line x1="480" y1="0" x2="480" y2="640" stroke="#1a1d2e" stroke-width="1"/>
  <line x1="560" y1="0" x2="560" y2="640" stroke="#1a1d2e" stroke-width="1"/>
  <line x1="640" y1="0" x2="640" y2="640" stroke="#1a1d2e" stroke-width="1"/>
  <line x1="720" y1="0" x2="720" y2="640" stroke="#1a1d2e" stroke-width="1"/>
  <line x1="800" y1="0" x2="800" y2="640" stroke="#1a1d2e" stroke-width="1"/>
  <line x1="880" y1="0" x2="880" y2="640" stroke="#1a1d2e" stroke-width="1"/>
  <line x1="960" y1="0" x2="960" y2="640" stroke="#1a1d2e" stroke-width="1"/>
  <line x1="1040" y1="0" x2="1040" y2="640" stroke="#1a1d2e" stroke-width="1"/>
  <line x1="1120" y1="0" x2="1120" y2="640" stroke="#1a1d2e" stroke-width="1"/>
  <line x1="1200" y1="0" x2="1200" y2="640" stroke="#1a1d2e" stroke-width="1"/>

  <circle cx="640" cy="320" r="420" fill="#1a1d2e" opacity="0.35"/>
  <circle cx="640" cy="320" r="280" fill="#1e2235" opacity="0.4"/>

  <rect x="480" y="268" width="320" height="8" rx="4" fill="#534AB7" opacity="0.15"/>
  <rect x="420" y="294" width="440" height="2" rx="1" fill="#378ADD" opacity="0.08"/>

  <text x="640" y="198" text-anchor="middle" font-family="-apple-system, BlinkMacSystemFont, 'Segoe UI', sans-serif" font-size="72" font-weight="700" fill="#ffffff" letter-spacing="-1">X İçerik Makinesi</text>

  <text x="640" y="258" text-anchor="middle" font-family="-apple-system, BlinkMacSystemFont, 'Segoe UI', sans-serif" font-size="26" font-weight="400" fill="#7B8EC8" letter-spacing="0.5">Otomatik Türkçe İçerik Sistemi</text>

  <line x1="200" y1="258" x2="490" y2="258" stroke="#1e2a45" stroke-width="1"/>
  <line x1="790" y1="258" x2="1080" y2="258" stroke="#1e2a45" stroke-width="1"/>

  <g>
    <rect x="108" y="358" width="156" height="80" rx="10" fill="#111827" stroke="#1D3461" stroke-width="1.5"/>
    <text x="186" y="394" text-anchor="middle" font-family="-apple-system, BlinkMacSystemFont, 'Segoe UI', sans-serif" font-size="13" font-weight="600" fill="#5DCAA5">RSS / API</text>
    <text x="186" y="414" text-anchor="middle" font-family="-apple-system, BlinkMacSystemFont, 'Segoe UI', sans-serif" font-size="11" fill="#4a6a5a">20+ kaynak</text>
  </g>

  <line x1="264" y1="398" x2="318" y2="398" stroke="#4F7FBF" stroke-width="1.5" marker-end="url(#arr)" stroke-dasharray="5,3"/>

  <g>
    <rect x="320" y="358" width="156" height="80" rx="10" fill="#111827" stroke="#1e3a5f" stroke-width="1.5"/>
    <rect x="320" y="358" width="156" height="4" rx="2" fill="#378ADD" opacity="0.6"/>
    <text x="398" y="394" text-anchor="middle" font-family="-apple-system, BlinkMacSystemFont, 'Segoe UI', sans-serif" font-size="13" font-weight="600" fill="#85B7EB">n8n</text>
    <text x="398" y="414" text-anchor="middle" font-family="-apple-system, BlinkMacSystemFont, 'Segoe UI', sans-serif" font-size="11" fill="#4a6880">otomasyon motoru</text>
  </g>

  <line x1="476" y1="398" x2="530" y2="398" stroke="#4F7FBF" stroke-width="1.5" marker-end="url(#arr)" stroke-dasharray="5,3"/>

  <g>
    <rect x="532" y="358" width="156" height="80" rx="10" fill="#111827" stroke="#2e1e5f" stroke-width="1.5"/>
    <rect x="532" y="358" width="156" height="4" rx="2" fill="#7F77DD" opacity="0.6"/>
    <text x="610" y="394" text-anchor="middle" font-family="-apple-system, BlinkMacSystemFont, 'Segoe UI', sans-serif" font-size="13" font-weight="600" fill="#AFA9EC">Gemini AI</text>
    <text x="610" y="414" text-anchor="middle" font-family="-apple-system, BlinkMacSystemFont, 'Segoe UI', sans-serif" font-size="11" fill="#5a4a80">içerik üretimi</text>
  </g>

  <line x1="688" y1="398" x2="742" y2="398" stroke="#4F7FBF" stroke-width="1.5" marker-end="url(#arr)" stroke-dasharray="5,3"/>

  <g>
    <rect x="744" y="358" width="156" height="80" rx="10" fill="#111827" stroke="#3f1e1e" stroke-width="1.5"/>
    <rect x="744" y="358" width="156" height="4" rx="2" fill="#D85A30" opacity="0.6"/>
    <text x="822" y="394" text-anchor="middle" font-family="-apple-system, BlinkMacSystemFont, 'Segoe UI', sans-serif" font-size="13" font-weight="600" fill="#F0997B">X API</text>
    <text x="822" y="414" text-anchor="middle" font-family="-apple-system, BlinkMacSystemFont, 'Segoe UI', sans-serif" font-size="11" fill="#806050">otomatik paylaşım</text>
  </g>

  <line x1="900" y1="398" x2="954" y2="398" stroke="#4F7FBF" stroke-width="1.5" marker-end="url(#arr)" stroke-dasharray="5,3"/>

  <g>
    <rect x="956" y="358" width="156" height="80" rx="10" fill="#111827" stroke="#1e3f1e" stroke-width="1.5"/>
    <rect x="956" y="358" width="156" height="4" rx="2" fill="#3B6D11" opacity="0.6"/>
    <text x="1034" y="394" text-anchor="middle" font-family="-apple-system, BlinkMacSystemFont, 'Segoe UI', sans-serif" font-size="13" font-weight="600" fill="#97C459">Sheets</text>
    <text x="1034" y="414" text-anchor="middle" font-family="-apple-system, BlinkMacSystemFont, 'Segoe UI', sans-serif" font-size="11" fill="#4a6030">arşiv + dedup</text>
  </g>

  <rect x="310" y="490" width="100" height="30" rx="15" fill="#0C2240" stroke="#185FA5" stroke-width="1"/>
  <text x="360" y="510" text-anchor="middle" font-family="-apple-system, BlinkMacSystemFont, 'Segoe UI', sans-serif" font-size="12" font-weight="500" fill="#85B7EB">ücretsiz</text>

  <rect x="430" y="490" width="120" height="30" rx="15" fill="#1a1230" stroke="#534AB7" stroke-width="1"/>
  <text x="490" y="510" text-anchor="middle" font-family="-apple-system, BlinkMacSystemFont, 'Segoe UI', sans-serif" font-size="12" font-weight="500" fill="#AFA9EC">self-hosted</text>

  <rect x="570" y="490" width="100" height="30" rx="15" fill="#0d2010" stroke="#3B6D11" stroke-width="1"/>
  <text x="620" y="510" text-anchor="middle" font-family="-apple-system, BlinkMacSystemFont, 'Segoe UI', sans-serif" font-size="12" font-weight="500" fill="#97C459">Türkçe</text>

  <rect x="690" y="490" width="130" height="30" rx="15" fill="#2a1208" stroke="#854F0B" stroke-width="1"/>
  <text x="755" y="510" text-anchor="middle" font-family="-apple-system, BlinkMacSystemFont, 'Segoe UI', sans-serif" font-size="12" font-weight="500" fill="#EF9F27">$5–15 / ay</text>

  <rect x="840" y="490" width="140" height="30" rx="15" fill="#1a1230" stroke="#534AB7" stroke-width="1"/>
  <text x="910" y="510" text-anchor="middle" font-family="-apple-system, BlinkMacSystemFont, 'Segoe UI', sans-serif" font-size="12" font-weight="500" fill="#AFA9EC">Claude MCP</text>

  <text x="640" y="590" text-anchor="middle" font-family="-apple-system, BlinkMacSystemFont, 'Segoe UI', sans-serif" font-size="14" fill="#2a3050">github.com/uorta22/X-Platform-Otomasyon</text>

  <circle cx="80" cy="80" r="3" fill="#378ADD" opacity="0.4"/>
  <circle cx="160" cy="160" r="3" fill="#534AB7" opacity="0.3"/>
  <circle cx="1200" cy="480" r="3" fill="#378ADD" opacity="0.4"/>
  <circle cx="1120" cy="160" r="3" fill="#534AB7" opacity="0.3"/>
  <circle cx="240" cy="560" r="2" fill="#5DCAA5" opacity="0.3"/>
  <circle cx="1040" cy="80" r="2" fill="#5DCAA5" opacity="0.3"/>
</svg>
